<?xml version="1.0" encoding="UTF-8" standalone="no"?>
<svg
    width="64"
    height="64"
    viewBox="0 0 64 64"
    class="logo-3oeRIY"
    version="1.1"
    id="svg22"
    xml:space="preserve"
    xmlns="http://www.w3.org/2000/svg"
    xmlns:svg="http://www.w3.org/2000/svg">
    <defs id="defs26" />
    <path
        id="rect341"
        style="fill:#4285f4;fill-opacity:1;stroke-width:0;stroke-linecap:round;stroke-linejoin:round"
        d="m 28,42 a 4,4 0 0 0 -4,4 4,4 0 0 0 4,4 h 20 a 4,4 0 0 0 4,-4 4,4 0 0 0 -4,-4 z" />
    <path
        id="rect343"
        style="fill:#34a853;fill-opacity:1;stroke-width:0;stroke-linecap:round;stroke-linejoin:round"
        d="m 28,28 a 4,4 0 0 0 -4,4 4,4 0 0 0 4,4 h 20 a 4,4 0 0 0 4,-4 4,4 0 0 0 -4,-4 z" />
    <path
        id="rect345"
        style="fill:#ea4335;fill-opacity:1;stroke-width:0;stroke-linecap:round;stroke-linejoin:round"
        d="m 28,14 a 4,4 0 0 0 -4,4 4,4 0 0 0 4,4 h 20 a 4,4 0 0 0 4,-4 4,4 0 0 0 -4,-4 z" />
    <path
        id="rect347"
        style="fill:#fbbc05;fill-opacity:1;stroke-width:0;stroke-linecap:round;stroke-linejoin:round"
        d="m 16,42 a 4,4 0 0 0 -4,4 4,4 0 0 0 4,4 4,4 0 0 0 4,-4 4,4 0 0 0 -4,-4 z" />
    <path
        id="rect349"
        style="fill:#fbbc05;fill-opacity:1;stroke-width:0;stroke-linecap:round;stroke-linejoin:round"
        d="m 16,28 a 4,4 0 0 0 -4,4 4,4 0 0 0 4,4 4,4 0 0 0 4,-4 4,4 0 0 0 -4,-4 z" />
    <path
        id="rect351"
        style="fill:#fbbc05;fill-opacity:1;stroke-width:0;stroke-linecap:round;stroke-linejoin:round"
        d="m 16,14 a 4,4 0 0 0 -4,4 4,4 0 0 0 4,4 4,4 0 0 0 4,-4 4,4 0 0 0 -4,-4 z" />
</svg>
